<svg version="1" xmlns="http://www.w3.org/2000/svg" width="1600" height="1600" viewBox="0 0 1200.000000 1200.000000"><path d="M598.2 29c-3.1 9.7-14.8 48-16.2 53.5-.4 1.6-2.9 10.4-5.5 19.5s-5.3 19-6.1 22c-.8 3-3.3 12.2-5.6 20.5-2.2 8.2-4.2 15.8-4.4 16.8-.2 1-.6 2.7-.9 3.7-.3 1-.8 2.7-1 3.7-.2 1-2.5 10.1-5 20.3-2.6 10.2-4.8 19.2-5 20-.2.8-.8 3.5-1.5 6s-1.4 5.2-1.5 6c-1.4 6.2-3.7 16.8-4 18-.3.8-1.1 4.6-2 8.5-.9 3.8-1.8 7.7-2 8.5-.6 2.7-10.3 48.4-10.9 51.5-.3 1.6-1.4 7.9-2.6 14-1.2 6-2.5 13.2-3 16-.5 2.7-1.1 6.1-1.4 7.5-.7 3.6-5.4 31.6-6.2 37-.3 2.5-.8 5.4-1 6.5-.4 2.6-1.2 7.8-2 14-.3 2.7-.8 5.9-1 6.9-.2 1.1-.6 4.2-.9 7-.3 2.8-.8 6.2-1 7.6-.4 2.6-1.2 9.2-1.9 16.2-.3 2.4-.8 7-1.2 10.3-.8 7.5-1 9.6-1.9 22-.4 5.5-.9 10.7-1 11.6-2.4 12.6-2.4 86.1 0 114.4.1 2.2.6 8.3 1 13.5.3 5.2.8 10.6 1 12 .2 1.4.6 5.9 1 10s.8 8.6 1 10c.2 1.4.6 5 1 8 .6 5.8 4.4 35.4 5.1 40.5.2 1.6.6 4.8.9 7 .3 2.2.7 4.9.9 6 .3 1.8.7 3.9 2.2 14 .3 1.6.7 4.2.9 5.6.3 1.4.7 4.1.9 6 .5 3.5 2.2 14.1 3.1 19.1.7 3.6 1.2 6.5 1.9 10.8 1.4 8 7.6 41.9 8.6 47 .6 3 1.3 6.6 1.6 8 .3 1.4 1.6 7.9 2.9 14.5 1.4 6.6 2.7 13.4 3 15.2.3 1.7 1.2 5.8 1.9 9 .8 3.2 1.7 7.1 2 8.8.6 3.9 3.4 17 4.6 21.5.5 1.9 1.1 4.6 1.4 6 .7 3.7 3.2 15.1 6.1 27.5 1.4 6 3.5 14.9 4.5 19.7 4 17.5 21.2 85.5 28.6 112.5 7.8 28.6 8.9 32.9 7.8 30.3-.7-1.6-6.2-16.7-11.8-33-6.3-18-19.8-54.5-29.6-80-42.8-111-82.9-198.5-119.9-261-8.9-15-29.7-46.7-37-56.1-2.2-3-4.5-5.9-4.9-6.4-3.6-4.9-13-17.4-14.3-19-24.9-30.7-49.4-59.2-72.4-84.1-22.2-24.1-80.5-83.1-107-108.4-20.2-19.3-37.7-35.4-61-56.4-3.6-3.2-6.3-4.7-5.1-2.8.2.4 2.9 9.3 5.9 19.7 17.8 61.2 33 107.5 53.2 162 6.7 18 18.6 48.7 20.9 53.9.8 1.7 4.4 10.3 8.1 19.1 15.3 36.4 34.9 77.2 49.3 102.5 18.2 32 33 54.1 55.7 83.4 9.4 12.1 34.8 43.2 36.4 44.6.4.3 5.1 5.7 10.6 12 9.9 11.3 14.1 15.9 26.1 28.9 3.4 3.6 7.3 7.9 8.8 9.6 13.6 15 70.6 72.6 90.2 91.2 24.5 23.3 37.7 35.7 50.4 47.3 5.1 4.7 10.3 9.4 11.4 10.5 2.3 2.2 19 17.2 24.6 22.1 5.1 4.5 11 10.3 8 7.8-39.6-32.3-126.7-94-174.5-123.6-36.4-22.5-62.5-36.7-91.9-49.8-20.4-9.1-59.1-22.3-92.6-31.7-11-3-52.2-13.6-57.5-14.7-1.1-.3-13.2-2.9-27-5.9-13.7-3-26.3-5.7-28-6-1.6-.3-6.4-1.2-10.5-2-15.3-3.1-45-8.5-51.4-9.3-1.7-.2-7-1.1-12-2-10.1-1.7-9.8-1.7-10.9-1.5-1.1.1-.5.7 15.8 14.6 7.7 6.6 14.2 12.2 14.5 12.5 2.9 3.4 49.3 40.1 72.5 57.4 23.9 17.9 27.4 20.4 52.5 37.2 11.3 7.5 21.7 14.5 23.2 15.5 1.5 1.1 2.9 1.9 3.2 1.9.3 0 3.6 2 7.3 4.4 19.6 12.5 51.3 28.7 74.7 38.1 27.8 11.1 79.9 27.3 109 34 3.6.8 9.8 2.3 18.1 4.3 16 3.9 52.1 11.8 58 12.7 2.2.3 5.6 1 7.5 1.5 2 .5 5.3 1.2 7.4 1.4 2.1.3 4.6.8 5.5 1 .9.3 3 .8 4.6 1.1 1.7.2 5.5.9 8.5 1.5 3 .5 6.9 1.2 8.5 1.5 1.7.2 4.1.7 5.5 1 1.4.3 7.9 1.4 14.5 2.5s13 2.2 14.2 2.4c1.1.3 4.3.8 7 1.2 2.6.3 5.7.8 6.8 1.1 1.1.2 4.3.6 7 .9 2.8.3 5.5 1 6 1.6.7.7.7.9 0 .5-1.5-.7-27.1-2.1-62-3.3-36.4-1.2-89.5-.7-110.5 1-2 .2-7.6.7-12.5 1-5 .4-13.7 1.4-19.5 2.2-5.8.8-12.3 1.7-14.5 2-2.2.3-4.2.7-4.5.9-.3.2-2.3.6-4.5.9-3.9.7-29.1 6.8-35 8.6-32 9.6-63.3 20.7-96 34-10.4 4.3-35.4 14.9-40 17-2.2 1-9.4 4.4-16 7.4-6.6 3.1-11.5 5.6-11 5.7.6 0 1.9.2 3 .4s4.7.7 8 1c3.3.3 7.1.7 8.5 1 1.4.2 5.4.7 9 1 3.6.4 8.3.8 10.5 1 10.3 1.1 14.6 1.4 22 2 4.4.3 10.5.8 13.5 1 34.3 2.7 96.3 2.7 118.5.1 1.7-.2 5.7-.7 9-1 6-.7 20.8-3.1 25.5-4.2 1.4-.3 3.8-.8 5.5-1.1 1.6-.3 7.9-1.8 14-3.4 6-1.7 11.7-3.2 12.5-3.4 34.2-8.8 108.6-38 164.3-64.4 7.1-3.4 13.3-6.1 13.8-6.1s.9-.5.9-1.2.5-.5 1.3.4c1.3 1.8 15.8 8.3 46.2 20.8 11 4.5 21.4 8.8 23 9.5 9.9 4.2 51.8 19.8 58.5 21.7 1.9.6 4 1.3 4.5 1.6.6.4 1.2.7 1.5.7.3.1 5.7 1.8 12 3.9 11.7 3.8 13.1 4.2 30 9 13 3.7 13.3 3.8 26 6.6 12.6 2.8 29.6 5.6 39.5 6.5 4.4.4 8.8.9 9.8 1.1 2.2.4 18.1 1.4 30.2 2 12.3.5 67.7.5 80-.1 5.5-.3 14.7-.7 20.5-1 14.2-.6 26.5-1.4 32.5-2 2.8-.3 8.8-.7 13.5-1.1 4.7-.3 8.7-.8 8.9-1 .5-.5-41.8-21.1-62.9-30.7-17.6-7.9-45-19.2-61.5-25.2-5.5-2-10.7-3.9-11.5-4.2-.8-.4-1.7-.7-2-.8-.3-.1-5-1.6-10.5-3.4-19.2-6.3-36.7-11-50.7-13.7-10.9-2.1-11.5-2.2-16.8-2.8-2.5-.3-5.8-.8-7.5-1-7.2-1-23-2.3-38.9-3.2-7.8-.4-65.5-.4-76.6 0-12.2.5-35.7 1.7-41 2.1-2.5.2-8.8.6-14 1-5.2.3-11.5.8-14 1-2.5.2-7.9.6-12 .9l-7.5.5 6-1.4c3.3-.7 7.6-1.6 9.5-1.9 1.9-.3 9.3-1.6 16.3-3 7.1-1.4 14.3-2.8 16-3.1 1.8-.4 8.6-1.7 15.2-3.1 6.6-1.4 14-2.9 16.5-3.4 4.4-.9 35.7-7.7 39.3-8.6.9-.2 2.5-.6 3.5-.8.9-.3 4.9-1.2 8.7-2.1 33.9-7.9 70.9-17.9 99-26.7 5.5-1.8 10.2-3.2 10.5-3.3 1.1-.2 14.8-4.7 18-6 5.3-2 7.4-2.8 8.5-3 .6-.2 7.5-2.8 15.5-6 18.4-7.2 48.4-21.8 67.1-32.5 7.9-4.5 15.8-9.1 17.4-10 29.6-17 93.4-60.8 135.5-93 12.5-9.6 27.5-21.2 31.4-24.3 10.4-8.3 20.6-16.9 20.6-17.2 0-.2-.8-.2-1.7-.1-1 .2-4.7.7-8.3 1.1-3.6.4-7.2.9-8.1 1-.8.2-4 .6-7 .9-3 .3-6.3.8-7.4 1-1.1.2-4.5.7-7.6 1-3.1.4-6.5.8-7.5 1-1.9.4-10.3 1.6-13.9 2.1-8.1 1.2-35.2 5.6-36.3 6-.7.2-3.4.7-6 1.1-3.9.5-14.6 2.6-51.2 10-4.9 1-28.6 6.4-33 7.6-39.9 10.3-79 22.3-93.5 28.8-1.1.5-6 2.6-11 4.6-10.1 4.2-41.6 20.1-51.5 26-3.6 2.1-7.7 4.5-9.3 5.4-6.4 3.5-19.8 11.7-28.1 17.2-4.9 3.2-9 5.8-9.2 5.8-2.1 0-85.1 58.7-99.4 70.3-.8.7-4.4 3.4-8 6.2-6.8 5.1-32.1 24.8-35.5 27.6-1.1.9-7.4 6-14 11.4l-12 9.6 8.5-8.1c4.7-4.5 14.3-13.6 21.5-20.3 15.3-14.4 95.4-94.3 110.5-110.3 12.2-12.8 29.6-31.5 36.6-39.3 2.7-3 6-6.6 7.3-8 1.3-1.4 6.9-7.8 12.5-14.1 5.5-6.3 10.8-12.1 11.6-13 .8-.9 3.5-4 6-7 2.5-2.9 5.7-6.7 7.2-8.4 2.2-2.6 7.2-8.6 21.7-26.1 20.6-25 49-64.6 63-88 6-10 6.5-10.9 16.4-28.5 6.4-11.4 30.7-59.3 35.5-70 1.1-2.5 3.9-8.5 6.1-13.3 2.3-4.9 4.1-9 4.1-9.2 0-.2 1.5-3.6 3.4-7.7 1.8-4 4.6-10.2 6.1-13.8 1.5-3.6 3.5-8.3 4.5-10.5 1-2.2 3-6.9 4.5-10.5 1.5-3.6 3.3-7.9 4-9.5 1.8-3.8 22.1-55.6 27.6-70 6.4-17 15.9-43 19.2-52.5.9-2.5 4.6-13.1 8.2-23.5 3.7-10.5 7.1-20.4 7.6-22.2.5-1.8 3-9.4 5.5-16.9 2.4-7.5 4.3-13.8 4.2-14-.3-.3-21.1 16.8-28.2 23.1-.6.5-4 3.5-7.6 6.5-3.6 3-6.7 5.7-7 6-.3.3-4.1 3.6-8.5 7.5-4.4 3.8-8.5 7.4-9.1 8-.6.5-4.7 4.1-9 8-4.3 3.8-10.3 9.2-13.4 12-3 2.7-5.9 5.4-6.6 6-3.1 2.8-26 24.2-34.8 32.5-25.3 24.1-72.6 72.3-86.2 87.9-2.2 2.4-5 5.6-6.4 7.1-10.7 11.1-40.7 47.4-55.3 66.9-26 34.6-57.1 88.2-78.9 135.6-2 4.4-5.3 11.6-7.3 16s-4.3 9.3-5 11c-.7 1.6-2.4 5.5-3.8 8.5-10.8 23.3-32.7 77.9-49.3 122.5-1.5 3.8-3 7.9-3.5 9-2 4.6-28.4 79.6-29.3 83.5-.3.8-1 2.8-1.6 4.5-.6 1.6-1.3 3.7-1.5 4.5-.2.8-2.4 7.8-5 15.5-2.5 7.7-5 15.7-5.6 17.9-.6 2.1-1.2 3.6-1.5 3.3-.3-.2 1.3-7.6 3.5-16.3 6.5-26.6 14.6-60.9 15.6-66.5.3-1.8.8-3.5 1-3.9.2-.4.7-2.2 1-4.1.3-1.9 1.7-8.1 3-13.9 1.4-5.8 4.1-17.9 6-27 1.9-9.1 4.2-19.4 5-23 .8-3.6 1.6-7.6 1.9-9 .2-1.4 2.2-11.4 4.5-22.3s4.3-21.3 4.7-23c.7-4.4 5.1-28 6.4-34.7.6-3 1.3-6.9 1.6-8.5.2-1.7 1.3-7.7 2.4-13.5 1.1-5.8 2.4-13.4 3-17 .5-3.6 1.2-7.6 1.4-9 1.9-10.7 7.2-43.9 9-57 .3-1.9 1-7.1 1.7-11.4.6-4.4 1.3-9.3 1.5-11 1.2-10.2 1.6-13.1 1.9-14.8.2-1.1.7-4.7 1-8.1.4-3.4.8-7.6 1-9.2.3-1.7.9-7.3 1.5-12.5s1.3-11.1 1.5-13c.2-1.9.7-7.1 1-11.5.3-4.4.8-9.6 1-11.5.4-3.1 1.1-11.4 2-25.5 2.4-34.1 2.4-86.9 0-118.6-.5-7.1-1.7-22.2-2-25.4-.1-1.7-.6-6.6-.9-11-.4-4.4-.9-9.1-1.1-10.5-.2-1.4-.7-5.2-1-8.5-.7-6.4-6.3-51-7.1-56-.2-1.7-.6-4.1-.9-5.5-.3-1.4-.7-4.8-1.1-7.5-.3-2.8-1.2-8.7-2-13.3-.8-4.5-1.6-9.7-1.8-11.5-.3-1.7-.7-4.7-1-6.5-.3-1.7-.8-4.4-1.1-6-.6-3.9-1.4-8.4-1.9-10.9-.3-1.1-.8-4.3-1.1-7-.4-2.6-1.1-6.4-1.5-8.3-.5-1.9-1.1-5.1-1.4-7-.3-1.9-.8-4.7-1.1-6.3-.3-1.5-.7-3.7-.9-5-.4-2.1-4.1-21.6-5.1-26.7-.3-1.4-1.2-6-2.1-10.3-.8-4.2-1.8-8.9-2-10.4-.3-1.5-1.2-5.9-2.1-9.8-.8-3.8-1.6-7.7-1.7-8.5-.1-.8-.8-3.8-1.4-6.5-.9-4-11.4-51.4-12.7-57.5-1.9-8.7-14.5-60.6-15.4-63.5-.6-1.7-1.2-4.1-1.5-5.5-.8-4.1-11.7-45.7-13.9-53l-1.3-4.5-3.2 9.5zm4.5 1055.2c-.3.8-.6.5-.6-.6-.1-1.1.2-1.7.5-1.3.3.3.4 1.2.1 1.9z"/></svg>